<?xml version="1.0" encoding="UTF-8" standalone="no"?>
<svg
   xmlns:dc="http://purl.org/dc/elements/1.1/"
   xmlns:cc="http://creativecommons.org/ns#"
   xmlns:rdf="http://www.w3.org/1999/02/22-rdf-syntax-ns#"
   xmlns:svg="http://www.w3.org/2000/svg"
   xmlns="http://www.w3.org/2000/svg"
   xmlns:sodipodi="http://sodipodi.sourceforge.net/DTD/sodipodi-0.dtd"
   xmlns:inkscape="http://www.inkscape.org/namespaces/inkscape"
   version="1.1"
   id="svg2"
   xml:space="preserve"
   width="374.88"
   height="62.146667"
   viewBox="0 0 374.88 62.146667"
   sodipodi:docname="Abaco_LIMITED_REV.eps"><metadata
     id="metadata8"><rdf:RDF><cc:Work
         rdf:about=""><dc:format>image/svg+xml</dc:format><dc:type
           rdf:resource="http://purl.org/dc/dcmitype/StillImage" /></cc:Work></rdf:RDF></metadata><defs
     id="defs6" /><sodipodi:namedview
     pagecolor="#ffffff"
     bordercolor="#666666"
     borderopacity="1"
     objecttolerance="10"
     gridtolerance="10"
     guidetolerance="10"
     inkscape:pageopacity="0"
     inkscape:pageshadow="2"
     inkscape:window-width="640"
     inkscape:window-height="480"
     id="namedview4" /><g
     id="g10"
     inkscape:groupmode="layer"
     inkscape:label="ink_ext_XXXXXX"
     transform="matrix(1.3333333,0,0,-1.3333333,0,62.146667)"><g
       id="g12"
       transform="scale(0.1)"><path
         d="m 1509.96,165.762 -35.87,-63.774 h 70.59 l 37.01,63.774 h -71.73"
         style="fill:#d9212d;fill-opacity:1;fill-rule:nonzero;stroke:none"
         id="path14" /><path
         d="m 1583.6,303.16 -40.67,-71.133 75.45,-130.289 h 80.96 L 1583.6,303.16"
         style="fill:#ffffff;fill-opacity:1;fill-rule:nonzero;stroke:none"
         id="path16" /><path
         d="m 1698.9,285.695 v -184.05 h 67.17 v 83.554 l 38.37,-84.347 h 55.03 l 39.16,84.347 v -83.554 h 66.95 v 184.05 h -91.63 l -42.69,-91.715 -41.9,91.918 -90.46,-0.203"
         style="fill:#ffffff;fill-opacity:1;fill-rule:nonzero;stroke:none"
         id="path18" /><path
         d="M 1986.23,285.945 V 101.887 h 168.98 v 51.859 h -101.03 v 22.524 h 101.03 v 47.464 h -101.03 v 12.965 h 101.03 v 49.246 h -168.98"
         style="fill:#ffffff;fill-opacity:1;fill-rule:nonzero;stroke:none"
         id="path20" /><path
         d="M 2376.89,285.867 V 101.73 h 169.58 v 51.883 h -101.38 v 22.602 h 101.38 v 47.351 h -101.38 v 12.977 h 101.38 v 49.324 h -169.58"
         style="fill:#ffffff;fill-opacity:1;fill-rule:nonzero;stroke:none"
         id="path22" /><path
         d="m 2167.32,286.09 v -49.246 h 64.22 V 102.043 h 67.54 v 134.801 h 65.02 v 49.246 h -196.78"
         style="fill:#ffffff;fill-opacity:1;fill-rule:nonzero;stroke:none"
         id="path24" /><path
         d="m 2681.55,286.09 -46.01,-50.442 v 50.442 h -70.69 V 102.043 h 70.69 v 51.848 l 7.64,9.375 36.62,-61.223 h 84.78 l -74.98,110.277 67.14,73.77 h -75.19"
         style="fill:#ffffff;fill-opacity:1;fill-rule:nonzero;stroke:none"
         id="path26" /><path
         d="m 2785.87,282.41 c -11.87,0 -21.51,-9.644 -21.51,-21.508 0,-11.863 9.64,-21.511 21.51,-21.511 11.86,0 21.5,9.648 21.5,21.511 0,11.864 -9.64,21.508 -21.5,21.508 m 0,-47.246 c -14.19,0 -25.75,11.543 -25.75,25.738 0,14.192 11.56,25.735 25.75,25.735 14.19,0 25.75,-11.543 25.75,-25.735 0,-14.195 -11.56,-25.738 -25.75,-25.738"
         style="fill:#ffffff;fill-opacity:1;fill-rule:nonzero;stroke:none"
         id="path28" /><path
         d="m 2779.16,258.887 h 8.96 c 4.42,0 4.87,-2.625 4.87,-4.875 0,-1.024 0.13,-5.18 0.65,-6.864 h 4.53 v 0.614 c -1.13,0.648 -1.32,1.215 -1.36,2.75 l -0.24,4.941 c -0.15,3.809 -1.72,4.5 -3.26,5.149 1.74,1.023 3.79,2.511 3.79,6.546 0,5.793 -4.5,7.352 -8.98,7.352 h -12.65 v -27.352 h 3.69 z m 0,12.453 h 9.23 c 1.83,0 4.92,-0.34 4.92,-4.567 0,-4.046 -2.88,-4.726 -5.57,-4.726 h -8.58 v 9.293"
         style="fill:#ffffff;fill-opacity:1;fill-rule:nonzero;stroke:none"
         id="path30" /><path
         d="m 1189.1,455.453 -4.94,4.512 c -9.62,8.789 -24.54,8.125 -33.34,-1.485 L 1041.64,339.227 c 50.97,17.734 99.23,24.683 139.84,26.402 27.93,49.355 17.76,76.848 7.62,89.824"
         style="fill:#ffffff;fill-opacity:1;fill-rule:nonzero;stroke:none"
         id="path32" /><path
         d="m 1189.1,455.453 c 10.14,-12.976 20.31,-40.469 -7.62,-89.824 -7.49,-13.231 -17.7,-28.024 -31.41,-44.543 0,0 25.96,15.699 147.52,35.219 l -108.49,99.148"
         style="fill:#ed641b;fill-opacity:1;fill-rule:nonzero;stroke:none"
         id="path34" /><path
         d="m 180.246,236.984 c -12.281,34.86 -29.711,86.36 -40.012,115.278 h -0.793 C 126.371,314.23 113.297,275.805 101.016,236.984 Z M 0,116.949 l 22.1836,4.36 c 24.5625,53.086 77.25,197.675 96.2654,254.722 14.262,2.774 36.84,9.508 47.141,13.864 l 17.43,-5.942 c 21.789,-63.383 65.363,-188.961 97.054,-262.644 l 22.582,-4.36 v -14.656 c -19.015,0.793 -37.633,1.187 -56.648,1.187 -18.621,0 -36.844,-0.394 -55.461,-1.187 v 14.656 l 26.144,4.36 c -7.128,29.711 -17.828,63.781 -27.73,89.531 H 92.3008 C 82.3984,182.316 74.4766,151.418 66.1563,121.309 l 24.957,-4.36 V 102.293 C 75.2695,103.086 59.8164,103.48 43.9727,103.48 29.3164,103.48 14.6563,103.086 0,102.293 v 14.656"
         style="fill:#ed641b;fill-opacity:1;fill-rule:nonzero;stroke:none"
         id="path36" /><path
         d="m 374.219,185.941 c 0,-28.359 0.719,-40.925 1.437,-53.492 8.254,-6.461 25.489,-10.769 39.129,-10.769 32.672,0 52.059,35.183 52.059,78.265 0,37.336 -15.797,74.313 -53.492,74.313 -31.594,0 -39.133,-22.977 -39.133,-59.594 z m -72.16,193.504 c 13.64,0.719 42.363,5.746 57.082,9.696 h 18.668 c -3.59,-20.465 -3.59,-47.391 -3.59,-79.7 v -31.234 h 0.719 c 10.41,14 32.308,28.363 60.312,28.363 30.516,0 79.699,-21.902 79.699,-98.371 0,-52.054 -33.386,-110.2146 -112.011,-110.2146 -10.411,0 -20.102,1.7969 -29.797,2.8746 -9.332,1.075 -18.668,2.512 -28.719,2.512 -9.695,0 -19.027,-0.359 -28.723,-1.078 l 10.414,17.234 c 3.59,20.461 3.59,47.387 3.59,79.7 v 82.57 c 0,32.312 0,59.234 -3.59,79.699 -7.539,1.438 -15.797,3.231 -24.054,4.668 v 13.281"
         style="fill:#ed641b;fill-opacity:1;fill-rule:nonzero;stroke:none"
         id="path38" /><path
         d="m 654.242,206.406 c -26.207,0 -80.058,-10.41 -80.058,-47.031 0,-14.719 10.773,-29.078 34.464,-29.078 33.391,0 54.571,29.078 56.368,76.109 z m 79.344,-104.113 c -11.133,0.719 -21.184,1.078 -31.594,1.078 -9.695,0 -19.387,-0.359 -29.082,-1.078 l -3.59,43.801 h -0.715 C 656.398,125.988 639.523,97.9844 590.34,97.9844 c -22.977,0 -64.262,10.7736 -64.262,54.2106 0,61.032 78.266,75.75 138.938,75.75 v 20.106 c 0,22.258 -8.258,32.668 -40.571,32.668 -25.847,0 -40.566,-6.102 -52.773,-11.129 v -19.742 l -13.281,-3.59 c -4.309,13.281 -10.774,29.437 -19.028,43.437 22.977,7.539 50.977,16.875 90.828,16.875 69.289,0 79.34,-30.875 79.34,-71.445 0,-14 2.871,-70.723 4.309,-109.137 l 19.746,-10.41 v -13.285"
         style="fill:#ed641b;fill-opacity:1;fill-rule:nonzero;stroke:none"
         id="path40" /><path
         d="m 921.344,140.348 c -16.516,-17.95 -40.207,-42.3636 -88.317,-42.3636 -44.156,0 -100.16,26.9256 -100.16,94.7816 0,76.464 63.184,113.804 122.063,113.804 20.101,0 39.847,-3.234 58.515,-11.132 -7.179,-15.079 -12.922,-35.18 -15.078,-47.028 l -13.281,1.793 v 19.746 c -9.695,5.387 -22.262,12.926 -42.004,12.926 -47.391,0 -62.109,-42.004 -62.109,-76.109 0,-48.465 30.875,-76.469 70.722,-76.469 25.133,0 39.133,10.41 55.289,25.129 l 14.36,-15.078"
         style="fill:#ed641b;fill-opacity:1;fill-rule:nonzero;stroke:none"
         id="path42" /><path
         d="m 1091.51,202.457 c 0,47.746 -23.34,80.418 -58.88,80.418 -43.798,0 -58.876,-36.977 -58.876,-80.418 0,-45.594 20.465,-80.777 58.876,-80.777 33.03,0 58.88,26.207 58.88,80.777 z m -165.862,0 c 0,59.953 45.954,104.113 106.982,104.113 73.24,0 106.99,-48.468 106.99,-104.113 0,-45.594 -29.44,-104.4726 -106.99,-104.4726 -66.415,0 -106.982,39.1326 -106.982,104.4726"
         style="fill:#ed641b;fill-opacity:1;fill-rule:nonzero;stroke:none"
         id="path44" /><path
         d="m 152.289,19.2852 c 0.371,-2.6329 1.102,-4.6016 2.195,-5.9063 1.996,-2.3711 5.418,-3.56249 10.262,-3.56249 2.906,0 5.262,0.31249 7.07,0.94139 3.434,1.1992 5.153,3.4297 5.153,6.6914 0,1.8985 -0.84,3.375 -2.524,4.418 -1.683,1.0156 -4.351,1.9141 -8.004,2.6953 l -6.242,1.375 c -6.133,1.3555 -10.347,2.8242 -12.644,4.418 -3.887,2.6601 -5.825,6.8164 -5.825,12.4765 0,5.1641 1.899,9.4493 5.7,12.8672 3.8,3.418 9.383,5.1211 16.746,5.1211 6.152,0 11.398,-1.6094 15.742,-4.8281 4.344,-3.2188 6.617,-7.8906 6.828,-14.0195 h -11.574 c -0.215,3.4687 -1.766,5.9296 -4.652,7.3906 -1.926,0.9648 -4.321,1.4492 -7.18,1.4492 -3.18,0 -5.719,-0.625 -7.617,-1.8789 -1.899,-1.25 -2.848,-3 -2.848,-5.2422 0,-2.0586 0.934,-3.5976 2.809,-4.6172 1.203,-0.6758 3.754,-1.4687 7.66,-2.3828 l 10.117,-2.3867 c 4.434,-1.0469 7.754,-2.4375 9.969,-4.1875 3.437,-2.7109 5.156,-6.6328 5.156,-11.7695 0,-5.2696 -2.035,-9.64067 -6.109,-13.12504 C 178.406,1.74219 172.652,0 165.219,0 c -7.586,0 -13.559,1.71484 -17.906,5.14453 -4.352,3.42969 -6.524,8.14067 -6.524,14.14067 h 11.5"
         style="fill:#ffffff;fill-opacity:1;fill-rule:nonzero;stroke:none"
         id="path46" /><path
         d="m 310.035,59.1445 h 13.649 L 304.398,23.1016 V 1.48828 H 292.352 V 23.1016 l -19.946,36.0429 h 14.199 l 11.969,-25.1132 11.461,25.1132"
         style="fill:#ffffff;fill-opacity:1;fill-rule:nonzero;stroke:none"
         id="path48" /><path
         d="m 419.355,19.2852 c 0.375,-2.6329 1.106,-4.6016 2.2,-5.9063 1.996,-2.3711 5.418,-3.56249 10.261,-3.56249 2.903,0 5.258,0.31249 7.071,0.94139 3.433,1.1992 5.152,3.4297 5.152,6.6914 0,1.8985 -0.844,3.375 -2.523,4.418 -1.684,1.0156 -4.352,1.9141 -8.008,2.6953 l -6.238,1.375 c -6.137,1.3555 -10.352,2.8242 -12.645,4.418 -3.887,2.6601 -5.828,6.8164 -5.828,12.4765 0,5.1641 1.898,9.4493 5.699,12.8672 3.805,3.418 9.387,5.1211 16.75,5.1211 6.149,0 11.399,-1.6094 15.738,-4.8281 4.344,-3.2188 6.621,-7.8906 6.832,-14.0195 h -11.578 c -0.215,3.4687 -1.765,5.9296 -4.652,7.3906 -1.926,0.9648 -4.316,1.4492 -7.18,1.4492 -3.176,0 -5.718,-0.625 -7.617,-1.8789 -1.898,-1.25 -2.844,-3 -2.844,-5.2422 0,-2.0586 0.934,-3.5976 2.805,-4.6172 1.203,-0.6758 3.758,-1.4687 7.66,-2.3828 l 10.117,-2.3867 c 4.434,-1.0469 7.758,-2.4375 9.973,-4.1875 3.438,-2.7109 5.156,-6.6328 5.156,-11.7695 0,-5.2696 -2.039,-9.64067 -6.113,-13.12504 C 445.473,1.74219 439.723,0 432.289,0 c -7.59,0 -13.559,1.71484 -17.906,5.14453 -4.352,3.42969 -6.524,8.14067 -6.524,14.14067 h 11.496"
         style="fill:#ffffff;fill-opacity:1;fill-rule:nonzero;stroke:none"
         id="path50" /><path
         d="M 586.098,59.1445 V 48.9336 h -17.25 V 1.48828 H 556.723 V 48.9336 h -17.328 v 10.2109 h 46.703"
         style="fill:#ffffff;fill-opacity:1;fill-rule:nonzero;stroke:none"
         id="path52" /><path
         d="M 715.879,48.9336 H 685.367 V 36.6914 h 28.008 V 26.6758 H 685.367 V 11.8516 h 31.918 V 1.48828 H 673.594 V 59.1445 h 42.285 V 48.9336"
         style="fill:#ffffff;fill-opacity:1;fill-rule:nonzero;stroke:none"
         id="path54" /><path
         d="m 845.02,59.1445 h 17.335 V 1.48828 H 851.133 V 40.4844 c 0,1.1211 0.012,2.6914 0.039,4.7148 0.023,2.0196 0.039,3.5781 0.039,4.6719 L 840.285,1.48828 H 828.574 L 817.73,49.8711 c 0,-1.0938 0.008,-2.6523 0.04,-4.6719 0.023,-2.0234 0.039,-3.5937 0.039,-4.7148 V 1.48828 H 806.578 V 59.1445 h 17.531 l 10.496,-45.3359 10.415,45.3359"
         style="fill:#ffffff;fill-opacity:1;fill-rule:nonzero;stroke:none"
         id="path56" /><path
         d="m 962.293,19.2852 c 0.371,-2.6329 1.102,-4.6016 2.195,-5.9063 1.996,-2.3711 5.418,-3.56249 10.262,-3.56249 2.902,0 5.258,0.31249 7.07,0.94139 3.434,1.1992 5.153,3.4297 5.153,6.6914 0,1.8985 -0.844,3.375 -2.524,4.418 -1.683,1.0156 -4.351,1.9141 -8.008,2.6953 l -6.238,1.375 c -6.137,1.3555 -10.351,2.8242 -12.644,4.418 -3.887,2.6601 -5.829,6.8164 -5.829,12.4765 0,5.1641 1.899,9.4493 5.704,12.8672 3.796,3.418 9.382,5.1211 16.746,5.1211 6.148,0 11.398,-1.6094 15.742,-4.8281 4.34,-3.2188 6.617,-7.8906 6.828,-14.0195 h -11.578 c -0.211,3.4687 -1.766,5.9296 -4.652,7.3906 -1.926,0.9648 -4.317,1.4492 -7.176,1.4492 -3.18,0 -5.723,-0.625 -7.621,-1.8789 -1.899,-1.25 -2.844,-3 -2.844,-5.2422 0,-2.0586 0.934,-3.5976 2.805,-4.6172 1.203,-0.6758 3.757,-1.4687 7.66,-2.3828 l 10.117,-2.3867 c 4.434,-1.0469 7.758,-2.4375 9.973,-4.1875 3.437,-2.7109 5.156,-6.6328 5.156,-11.7695 0,-5.2696 -2.039,-9.64067 -6.113,-13.12504 C 988.406,1.74219 982.656,0 975.223,0 c -7.59,0 -13.559,1.71484 -17.907,5.14453 -4.351,3.42969 -6.523,8.14067 -6.523,14.14067 h 11.5"
         style="fill:#ffffff;fill-opacity:1;fill-rule:nonzero;stroke:none"
         id="path58" /><path
         d="m 1301.24,105.898 112.39,194.653"
         style="fill:none;stroke:#c8c7c7;stroke-width:8.96052;stroke-linecap:round;stroke-linejoin:miter;stroke-miterlimit:10;stroke-dasharray:none;stroke-opacity:1"
         id="path60" /></g></g></svg>
